<svg xmlns="http://www.w3.org/2000/svg" viewBox="0 0 32 32" fill="none">
  <defs>
    <linearGradient id="bg1" x1="0%" y1="0%" x2="100%" y2="100%">
      <stop offset="0%" style="stop-color:#6366F1"/>
      <stop offset="100%" style="stop-color:#818CF8"/>
    </linearGradient>
  </defs>
  <rect width="32" height="32" rx="8" fill="url(#bg1)"/>
  <path d="M16 7C14.5 7 13.3 8.2 13.3 9.7V13.3C13.3 14.8 14.5 16 16 16C17.5 16 18.7 14.8 18.7 13.3V9.7C18.7 8.2 17.5 7 16 7Z" stroke="white" stroke-width="1.8" stroke-linecap="round" stroke-linejoin="round" fill="none"/>
  <path d="M22 13.3V14.7C22 17.9 19.3 20.7 16 20.7C12.7 20.7 10 17.9 10 14.7V13.3" stroke="white" stroke-width="1.8" stroke-linecap="round" stroke-linejoin="round" fill="none"/>
  <path d="M16 20.7V24" stroke="white" stroke-width="1.8" stroke-linecap="round" fill="none"/>
  <path d="M12.7 24H19.3" stroke="white" stroke-width="1.8" stroke-linecap="round" fill="none"/>
  <circle cx="16" cy="10.5" r="1.5" fill="white"/>
  <circle cx="23" cy="9" r="2" fill="#10B981"/>
  <path d="M22 9L22.7 9.7L24.2 8.3" stroke="white" stroke-width="1" stroke-linecap="round" stroke-linejoin="round"/>
</svg>